<?xml version="1.0" encoding="iso-8859-1"?>
<!-- Generator: Adobe Illustrator 19.0.0, SVG Export Plug-In . SVG Version: 6.00 Build 0)  -->
<svg version="1.1" id="Layer_1" xmlns="http://www.w3.org/2000/svg" xmlns:xlink="http://www.w3.org/1999/xlink" x="0px" y="0px"
	 viewBox="0 0 512 512" style="enable-background:new 0 0 512 512;" xml:space="preserve">
<g>
	<g>
		<path d="M480,106.667H32c-17.643,0-32,14.357-32,32v298.667c0,17.643,14.357,32,32,32h448c17.643,0,32-14.357,32-32V138.667
			C512,121.024,497.643,106.667,480,106.667z M490.667,437.333c0,5.888-4.779,10.667-10.667,10.667H32
			c-5.888,0-10.667-4.779-10.667-10.667V138.667C21.333,132.779,26.112,128,32,128h448c5.888,0,10.667,4.779,10.667,10.667V437.333z
			"/>
	</g>
</g>
<g>
	<g>
		<path d="M309.333,42.667H202.667c-17.643,0-32,14.357-32,32v42.667c0,5.888,4.779,10.667,10.667,10.667h149.333
			c5.888,0,10.667-4.779,10.667-10.667V74.667C341.333,57.024,326.976,42.667,309.333,42.667z M320,106.667H192v-32
			C192,68.779,196.779,64,202.667,64h106.667C315.221,64,320,68.779,320,74.667V106.667z"/>
	</g>
</g>
<g>
	<g>
		<path d="M501.333,234.667H10.667C4.779,234.667,0,239.445,0,245.333S4.779,256,10.667,256h490.667
			c5.888,0,10.667-4.779,10.667-10.667S507.221,234.667,501.333,234.667z"/>
	</g>
</g>
<g>
	<g>
		<path d="M160,234.667c-5.888,0-10.667,4.779-10.667,10.667v53.333h-42.667v-53.333c0-5.888-4.779-10.667-10.667-10.667
			s-10.667,4.779-10.667,10.667v64C85.333,315.221,90.112,320,96,320h64c5.888,0,10.667-4.779,10.667-10.667v-64
			C170.667,239.445,165.888,234.667,160,234.667z"/>
	</g>
</g>
<g>
	<g>
		<path d="M416,234.667c-5.888,0-10.667,4.779-10.667,10.667v53.333h-42.667v-53.333c0-5.888-4.779-10.667-10.667-10.667
			c-5.888,0-10.667,4.779-10.667,10.667v64c0,5.888,4.779,10.667,10.667,10.667h64c5.888,0,10.667-4.779,10.667-10.667v-64
			C426.667,239.445,421.888,234.667,416,234.667z"/>
	</g>
</g>
<g>
</g>
<g>
</g>
<g>
</g>
<g>
</g>
<g>
</g>
<g>
</g>
<g>
</g>
<g>
</g>
<g>
</g>
<g>
</g>
<g>
</g>
<g>
</g>
<g>
</g>
<g>
</g>
<g>
</g>
</svg>
