<?xml version="1.0" encoding="iso-8859-1"?>
<!-- Generator: Adobe Illustrator 19.0.0, SVG Export Plug-In . SVG Version: 6.00 Build 0)  -->
<svg version="1.1" id="Capa_1" xmlns="http://www.w3.org/2000/svg" xmlns:xlink="http://www.w3.org/1999/xlink" x="0px" y="0px"
	 viewBox="0 0 512 512" style="enable-background:new 0 0 512 512;" xml:space="preserve">
<g>
	<g>
		<path d="M256,224c-26.464,0-48,21.536-48,48s21.536,48,48,48s48-21.536,48-48S282.464,224,256,224z M256,288c-8.8,0-16-7.2-16-16
			s7.2-16,16-16s16,7.2,16,16S264.8,288,256,288z"/>
	</g>
</g>
<g>
	<g>
		<path d="M256,160c-61.76,0-112,50.24-112,112c0,57.504,89.856,159.296,100.096,170.688c3.04,3.36,7.36,5.312,11.904,5.312
			s8.864-1.952,11.904-5.312C278.144,431.296,368,329.504,368,272C368,210.24,317.76,160,256,160z M256,407.584
			C221.056,366.144,176,302.56,176,272c0-44.128,35.872-80,80-80s80,35.872,80,80C336,302.496,290.944,366.144,256,407.584z"/>
	</g>
</g>
<g>
	<g>
		<path d="M506.912,228.32l-240-224c-6.112-5.76-15.68-5.76-21.824,0l-240,224c-4.8,4.48-6.368,11.424-3.968,17.568
			C3.52,251.968,9.44,256,16,256h48v240c0,8.832,7.168,16,16,16h352c8.832,0,16-7.168,16-16V256h48c6.56,0,12.48-4.032,14.88-10.112
			C513.28,239.776,511.712,232.8,506.912,228.32z M432,224c-8.832,0-16,7.168-16,16v240H96V240c0-8.832-7.168-16-16-16H56.608
			L256,37.888L455.392,224H432z"/>
	</g>
</g>
<g>
</g>
<g>
</g>
<g>
</g>
<g>
</g>
<g>
</g>
<g>
</g>
<g>
</g>
<g>
</g>
<g>
</g>
<g>
</g>
<g>
</g>
<g>
</g>
<g>
</g>
<g>
</g>
<g>
</g>
</svg>
