<svg height="512pt" viewBox="0 0 512 512" width="512pt" xmlns="http://www.w3.org/2000/svg"><path d="m30 30h115.007812v-30h-145.007812v145.007812h30zm0 0"/><path d="m366.992188 0v30h115.007812v115.007812h30v-145.007812zm0 0"/><path d="m30 366.992188h-30v145.007812h145.007812v-30h-115.007812zm0 0"/><path d="m482 482h-115.007812v30h145.007812v-145.007812h-30zm0 0"/><path d="m106.71875 221.367188-33.71875 77.128906h26.445312l5.175782-13.441406h29.3125l5.175781 13.441406h26.886719l-33.714844-77.128906zm5.066406 44.957031 7.492188-19.394531 7.492187 19.394531zm0 0"/><path d="m225.722656 263.015625c0 11.792969-4.519531 16.199219-11.792968 16.199219-7.269532 0-11.789063-4.40625-11.789063-16.199219v-41.648437h-26.003906v42.421874c0 23.140626 13.886719 36.472657 37.574219 36.472657s37.570312-13.332031 37.570312-36.472657v-42.421874h-25.5625v41.648437zm0 0"/><path d="m264.511719 241.53125h22.585937v56.964844h26.003906v-56.964844h22.589844v-20.164062h-71.179687zm0 0"/><path d="m433.539062 259.933594c0-23.359375-18.402343-40.328125-43.523437-40.328125s-43.523437 16.96875-43.523437 40.328125c0 23.355468 18.402343 40.324218 43.523437 40.324218s43.523437-16.964843 43.523437-40.324218zm-60.824218 0c0-12.011719 7.714844-19.285156 17.300781-19.285156s17.296875 7.273437 17.296875 19.285156c0 12.007812-7.710938 19.28125-17.296875 19.28125s-17.300781-7.273438-17.300781-19.28125zm0 0"/></svg>