<?xml version="1.0" encoding="iso-8859-1"?>
<!-- Generator: Adobe Illustrator 19.0.0, SVG Export Plug-In . SVG Version: 6.00 Build 0)  -->
<svg version="1.1" id="Capa_1" xmlns="http://www.w3.org/2000/svg" xmlns:xlink="http://www.w3.org/1999/xlink" x="0px" y="0px"
	 viewBox="0 0 512 512" style="enable-background:new 0 0 512 512;" xml:space="preserve">
<g>
	<g>
		<path d="M256.016,0c-70.592,0-128,57.408-128,128s57.408,128,128,128s128-57.408,128-128S326.608,0,256.016,0z M256.016,224
			c-52.928,0-96-43.072-96-96c0-52.928,43.072-96,96-96c52.928,0,96,43.072,96,96S308.944,224,256.016,224z"/>
	</g>
</g>
<g>
	<g>
		<path d="M381.136,486.816l-112-160c-5.952-8.512-20.192-8.512-26.208,0l-112,160c-5.056,7.232-3.328,17.216,3.936,22.272
			c7.232,5.088,17.216,3.328,22.272-3.904l98.88-141.28l98.912,141.28c3.104,4.448,8.064,6.816,13.088,6.816
			c3.2,0,6.368-0.928,9.216-2.912C384.464,504.032,386.224,494.08,381.136,486.816z"/>
	</g>
</g>
<g>
	<g>
		<path d="M414.384,263.744c-6.24-6.24-16.384-6.24-22.624,0c-74.912,74.88-196.672,74.88-271.52,0c-6.24-6.24-16.384-6.24-22.624,0
			s-6.24,16.384,0,22.624c43.68,43.648,101.056,65.504,158.4,65.504s114.72-21.856,158.368-65.504
			C420.624,280.128,420.624,269.984,414.384,263.744z"/>
	</g>
</g>
<g>
</g>
<g>
</g>
<g>
</g>
<g>
</g>
<g>
</g>
<g>
</g>
<g>
</g>
<g>
</g>
<g>
</g>
<g>
</g>
<g>
</g>
<g>
</g>
<g>
</g>
<g>
</g>
<g>
</g>
</svg>
