<?xml version="1.0" encoding="iso-8859-1"?>
<!-- Generator: Adobe Illustrator 19.0.0, SVG Export Plug-In . SVG Version: 6.00 Build 0)  -->
<svg version="1.1" id="Capa_1" xmlns="http://www.w3.org/2000/svg" xmlns:xlink="http://www.w3.org/1999/xlink" x="0px" y="0px"
	 viewBox="0 0 512 512" style="enable-background:new 0 0 512 512;" xml:space="preserve">
<g>
	<g>
		<path d="M112,32C50.24,32,0,82.24,0,144v96c0,8.832,7.168,16,16,16h192c8.832,0,16-7.168,16-16v-96C224,82.24,173.76,32,112,32z
			 M192,224H32v-80c0-44.096,35.904-80,80-80s80,35.904,80,80V224z"/>
	</g>
</g>
<g>
	<g>
		<path d="M192,224H32c-8.832,0-16,7.168-16,16v144c0,52.928,43.072,96,96,96s96-43.072,96-96V240C208,231.168,200.832,224,192,224z
			 M176,384c0,35.296-28.704,64-64,64s-64-28.704-64-64V256h128V384z"/>
	</g>
</g>
<g>
	<g>
		<path d="M208,160H16c-8.832,0-16,7.168-16,16c0,8.832,7.168,16,16,16h192c8.832,0,16-7.168,16-16C224,167.168,216.832,160,208,160
			z"/>
	</g>
</g>
<g>
	<g>
		<path d="M400,32c-61.76,0-112,50.24-112,112v96c0,8.832,7.168,16,16,16h192c8.832,0,16-7.168,16-16v-96
			C512,82.24,461.76,32,400,32z M480,224H320v-80c0-44.096,35.872-80,80-80s80,35.904,80,80V224z"/>
	</g>
</g>
<g>
	<g>
		<path d="M480,224H320c-8.832,0-16,7.168-16,16v144c0,52.928,43.072,96,96,96c52.928,0,96-43.072,96-96V240
			C496,231.168,488.832,224,480,224z M464,384c0,35.296-28.704,64-64,64c-35.296,0-64-28.704-64-64V256h128V384z"/>
	</g>
</g>
<g>
	<g>
		<path d="M496,160H304c-8.832,0-16,7.168-16,16c0,8.832,7.168,16,16,16h192c8.832,0,16-7.168,16-16
			C512,167.168,504.832,160,496,160z"/>
	</g>
</g>
<g>
</g>
<g>
</g>
<g>
</g>
<g>
</g>
<g>
</g>
<g>
</g>
<g>
</g>
<g>
</g>
<g>
</g>
<g>
</g>
<g>
</g>
<g>
</g>
<g>
</g>
<g>
</g>
<g>
</g>
</svg>
